HIERARCHY
ROOT Hips
{
	OFFSET 0.00000 0.00000 0.00000
	CHANNELS 6 Xposition Yposition Zposition Zrotation Yrotation Xrotation 
	JOINT LHipJoint
	{
		OFFSET 0 0 0
		CHANNELS 3 Zrotation Yrotation Xrotation
		JOINT LeftUpLeg
		{
			OFFSET 1.29432 -1.88279 0.59910
			CHANNELS 3 Zrotation Yrotation Xrotation
			JOINT LeftLeg
			{
				OFFSET 2.63039 -7.22694 0.00000
				CHANNELS 3 Zrotation Yrotation Xrotation
				JOINT LeftFoot
				{
					OFFSET 2.70674 -7.43672 0.00000
					CHANNELS 3 Zrotation Yrotation Xrotation
					JOINT LeftToeBase
					{
						OFFSET 0.15066 -0.41394 2.09027
						CHANNELS 3 Zrotation Yrotation Xrotation
						End Site
						{
							OFFSET 0.00000 -0.00000 1.07518
						}
					}
				}
			}
		}
	}
	JOINT RHipJoint
	{
		OFFSET 0 0 0
		CHANNELS 3 Zrotation Yrotation Xrotation
		JOINT RightUpLeg
		{
			OFFSET -1.37068 -1.88279 0.59910
			CHANNELS 3 Zrotation Yrotation Xrotation
			JOINT RightLeg
			{
				OFFSET -2.57023 -7.06166 0.00000
				CHANNELS 3 Zrotation Yrotation Xrotation
				JOINT RightFoot
				{
					OFFSET -2.76461 -7.59570 0.00000
					CHANNELS 3 Zrotation Yrotation Xrotation
					JOINT RightToeBase
					{
						OFFSET -0.24175 -0.64785 2.19719
						CHANNELS 3 Zrotation Yrotation Xrotation
						End Site
						{
							OFFSET -0.00000 -0.00000 1.14803
						}
					}
				}
			}
		}
	}
	JOINT LowerBack
	{
		OFFSET 0 0 0
		CHANNELS 3 Zrotation Yrotation Xrotation
		JOINT Spine
		{
			OFFSET -0.03138 2.03983 -0.23106
			CHANNELS 3 Zrotation Yrotation Xrotation
			JOINT Spine1
			{
				OFFSET -0.00325 2.06238 -0.06878
				CHANNELS 3 Zrotation Yrotation Xrotation
				JOINT Neck
				{
					OFFSET 0 0 0
					CHANNELS 3 Zrotation Yrotation Xrotation
					JOINT Neck1
					{
						OFFSET -0.00002 1.75318 0.18090
						CHANNELS 3 Zrotation Yrotation Xrotation
						JOINT Head
						{
							OFFSET 0.08806 1.75856 -0.25387
							CHANNELS 3 Zrotation Yrotation Xrotation
							End Site
							{
								OFFSET 0.02554 1.78597 -0.10684
							}
						}
					}
				}
				JOINT LeftShoulder
				{
					OFFSET 0 0 0
					CHANNELS 3 Zrotation Yrotation Xrotation
					JOINT LeftArm
					{
						OFFSET 3.09657 1.33597 -0.04414
						CHANNELS 3 Zrotation Yrotation Xrotation
						JOINT LeftForeArm
						{
							OFFSET 5.34298 -0.00000 -0.00000
							CHANNELS 3 Zrotation Yrotation Xrotation
							JOINT LeftHand
							{
								OFFSET 3.67262 -0.00000 -0.00000
								CHANNELS 3 Zrotation Yrotation Xrotation
								JOINT LeftFingerBase
								{
									OFFSET 0 0 0
									CHANNELS 3 Zrotation Yrotation Xrotation
									JOINT LeftHandIndex1
									{
										OFFSET 0.59930 -0.00000 -0.00000
										CHANNELS 3 Zrotation Yrotation Xrotation
										End Site
										{
											OFFSET 0.48317 -0.00000 -0.00000
										}
									}
								}
								JOINT LThumb
								{
									OFFSET 0 0 0
									CHANNELS 3 Zrotation Yrotation Xrotation
									End Site
									{
										OFFSET 0.49055 -0.00000 0.49055
									}
								}
							}
						}
					}
				}
				JOINT RightShoulder
				{
					OFFSET 0 0 0
					CHANNELS 3 Zrotation Yrotation Xrotation
					JOINT RightArm
					{
						OFFSET -3.16460 1.32273 -0.23382
						CHANNELS 3 Zrotation Yrotation Xrotation
						JOINT RightForeArm
						{
							OFFSET -5.54967 -0.01834 0.03348
							CHANNELS 3 Zrotation Yrotation Xrotation
							JOINT RightHand
							{
								OFFSET -3.69401 -0.00000 0.00000
								CHANNELS 3 Zrotation Yrotation Xrotation
								JOINT RightFingerBase
								{
									OFFSET 0 0 0
									CHANNELS 3 Zrotation Yrotation Xrotation
									JOINT RightHandIndex1
									{
										OFFSET -0.63811 -0.00000 0.00000
										CHANNELS 3 Zrotation Yrotation Xrotation
										End Site
										{
											OFFSET -0.51446 -0.00000 0.00000
										}
									}
								}
								JOINT RThumb
								{
									OFFSET 0 0 0
									CHANNELS 3 Zrotation Yrotation Xrotation
									End Site
									{
										OFFSET -0.52232 -0.00000 0.52232
									}
								}
							}
						}
					}
				}
			}
		}
	}
}
MOTION
Frames: 6
Frame Time: .0083333
9.8094 18.5470 -1.9675 1.8403 -0.2869 5.0780 0.0000 0.0000 0.0000 -23.4937 -1.4647 -7.9849 0.9220 6.1176 17.1260 0.5748 -5.0665 -13.4973 0.3116 3.5887 9.9223 0.0000 0.0000 0.0000 10.6586 15.5118 -9.2151 -1.4008 -7.4871 21.1666 0.2469 -15.2303 -18.8105 -0.0231 0.9803 -2.6945 -4.4263 0.7720 -1.7207 -2.5039 1.1772 0.7441 -0.0548 0.5528 1.6945 -1.8887 -0.6289 -7.3707 1.5767 -1.0158 36.8375 0.8339 -0.5047 13.7173 -0.0000 -0.0000 0.0000 -79.8482 -56.8325 36.0670 30.2351 -41.0941 -11.5639 -0.0000 0.0000 -5.8395 54.4822 46.6071 45.5131 -7.1250 0.0000 -0.0000 99.5448 -84.8596 -104.6716 -0.0000 -0.0000 0.0000 90.8733 56.5150 38.8188 -33.7445 43.8945 -13.9356 0.0000 -0.0000 -9.7955 -60.4165 14.3116 -23.5300 7.1250 -0.0000 -0.0000 -20.5577 -4.0593 -20.4394
9.8301 18.5427 -1.9403 3.0845 -0.2572 5.1311 0.0000 0.0000 0.0000 -24.9907 -1.6357 -7.7521 0.9066 6.0676 16.9806 0.5814 -5.0084 -13.5736 0.3260 3.6700 10.1499 0.0000 0.0000 0.0000 9.0797 14.0006 -9.7862 -1.4166 -7.5274 21.2874 0.1399 -14.0028 -18.2071 -0.0504 1.4495 -3.9865 -5.2784 0.7787 -2.1632 -2.9387 1.2491 0.7543 -0.0187 0.5766 1.9451 -1.3843 -0.6032 -7.1273 1.2132 -0.9587 36.6478 0.6049 -0.4560 13.5705 -0.0000 0.0000 0.0000 -80.0050 -56.9145 35.7501 30.1453 -41.0176 -11.5049 -0.0000 0.0000 -7.3385 54.4917 46.8457 45.6353 -7.1250 0.0000 -0.0000 102.2026 -84.9288 -107.2241 -0.0000 0.0000 0.0000 91.0849 56.4671 38.6797 -33.6192 43.8006 -13.8488 0.0000 -0.0000 -9.4497 -61.0387 14.6209 -24.5181 7.1250 -0.0000 -0.0000 -20.8025 -3.1702 -21.0835
9.8019 18.5391 -1.9143 3.2918 0.0531 4.5763 0.0000 0.0000 0.0000 -25.0800 -0.8666 -7.1811 0.8918 6.0192 16.8403 0.5625 -5.7742 -13.3796 0.3362 3.7260 10.3071 0.0000 0.0000 0.0000 9.1780 13.8587 -8.9564 -1.4304 -7.5622 21.3921 0.1314 -14.2227 -18.6550 -0.0566 1.5352 -4.2228 -5.7735 0.6832 -1.9446 -2.8978 1.1280 0.9364 0.2920 0.5058 2.0056 -1.0387 -0.4586 -6.8007 0.9743 -0.7355 36.3942 0.4765 -0.3418 13.3776 -0.0000 0.0000 0.0000 -79.6957 -56.2297 35.9765 30.4265 -41.2562 -11.6899 -0.0000 0.0000 -5.7556 55.0282 46.7755 46.1714 -7.1250 0.0000 -0.0000 104.1539 -84.6735 -109.3982 -0.0000 0.0000 0.0000 91.5470 56.4384 39.0395 -33.4818 43.6971 -13.7538 0.0000 -0.0000 -9.2738 -60.7306 14.0620 -23.4374 7.1250 -0.0000 -0.0000 -20.8012 -4.2760 -20.6294
9.7794 18.5406 -1.9032 2.8396 0.0471 4.5033 0.0000 0.0000 0.0000 -24.4875 -0.5351 -7.0311 0.8608 5.9164 16.5421 0.5483 -5.9452 -13.2257 0.3495 3.7986 10.5107 0.0000 0.0000 0.0000 9.8126 14.2600 -8.8151 -1.4568 -7.6288 21.5921 0.1273 -14.4368 -19.0343 -0.0429 1.3370 -3.6765 -5.5192 0.6586 -2.0247 -2.7021 1.0899 0.9216 0.3519 0.4884 2.0372 -1.0246 -0.3086 -6.5089 1.0026 -0.5279 36.1388 0.5106 -0.2458 13.1971 0.0000 -0.0000 0.0000 -79.6884 -56.3004 35.7162 30.0962 -40.9757 -11.4726 -0.0000 0.0000 -5.2117 54.5429 46.7154 45.6283 -7.1250 0.0000 -0.0000 101.0656 -84.8681 -106.1649 0.0000 -0.0000 0.0000 91.9947 56.3478 39.5977 -33.4208 43.6510 -13.7117 0.0000 -0.0000 -9.3128 -59.9700 13.2777 -21.6690 7.1250 -0.0000 -0.0000 -20.6204 -6.0083 -19.7024
9.7696 18.5403 -1.8978 2.8446 -0.0808 4.5867 0.0000 0.0000 0.0000 -24.4720 -0.5776 -7.1007 0.8579 5.9066 16.5136 0.5535 -5.8513 -13.2802 0.3700 3.9069 10.8149 0.0000 0.0000 0.0000 9.8075 14.3091 -8.9694 -1.4619 -7.6415 21.6304 0.1305 -14.4006 -18.9395 -0.0372 1.2444 -3.4215 -5.4371 0.7230 -2.1012 -2.7564 1.1722 0.7747 0.2535 0.5351 1.9274 -0.9829 -0.2721 -6.3480 1.0407 -0.4951 36.1385 0.5224 -0.2210 13.1617 0.0000 -0.0000 0.0000 -79.7424 -56.1842 35.5804 29.9823 -40.8782 -11.3981 -0.0000 0.0000 -5.2046 54.1097 46.6608 45.1454 -7.1250 0.0000 -0.0000 98.0496 -85.0301 -103.0187 0.0000 -0.0000 0.0000 92.3764 56.1578 39.9580 -33.2732 43.5390 -13.6099 0.0000 -0.0000 -8.8595 -59.5565 12.0764 -19.5947 7.1250 -0.0000 -0.0000 -20.7531 -8.2128 -18.8946
9.7609 18.5377 -1.8931 3.0985 -0.0444 4.6121 0.0000 0.0000 0.0000 -24.7201 -0.6533 -7.1383 0.8663 5.9349 16.5956 0.5547 -5.8551 -13.2934 0.3548 3.8270 10.5906 0.0000 0.0000 0.0000 9.5408 13.9636 -9.1109 -1.4622 -7.6423 21.6329 0.1206 -14.2021 -18.7572 -0.0291 1.1021 -3.0298 -5.5398 0.7721 -2.0075 -2.8826 1.2277 0.6408 0.1803 0.5682 1.7350 -0.9535 -0.2739 -6.4379 1.0965 -0.5196 36.3412 0.5376 -0.2197 13.2719 -0.0000 -0.0000 0.0000 -79.8181 -55.9046 35.5859 30.0869 -40.9678 -11.4665 -0.0000 0.0000 -5.2253 53.9626 46.6171 44.9700 -7.1250 0.0000 -0.0000 96.7437 -85.0725 -101.6797 -0.0000 -0.0000 0.0000 92.5152 56.0693 40.0952 -33.0450 43.3646 -13.4530 0.0000 -0.0000 -8.3248 -59.5000 11.4423 -18.6127 7.1250 -0.0000 -0.0000 -20.9151 -9.2966 -18.5798
